<svg width="49" height="48" viewBox="0 0 49 48" fill="none" xmlns="http://www.w3.org/2000/svg">
<g id="Frame 2452">
<g id="Group 5828">
<ellipse id="Ellipse 1330" cx="23.1323" cy="22.275" rx="14.228" ry="14.359" fill="#A8E6E1"/>
<path id="$" d="M23.3216 28.6532C23.3216 28.5539 23.2486 28.4699 23.1507 28.453C22.095 28.2702 21.2228 27.8465 20.5341 27.182C19.8495 26.5154 19.4114 25.6816 19.2198 24.6807C19.2002 24.5786 19.2657 24.4803 19.3666 24.4555L21.3841 23.9591C21.4972 23.9313 21.6096 24.0058 21.6342 24.1196C21.785 24.818 22.0833 25.3583 22.5293 25.7405C23.0257 26.1541 23.6525 26.361 24.4099 26.361C24.8045 26.361 25.1577 26.291 25.4695 26.151C25.7877 26.0109 26.0391 25.8105 26.2237 25.5495C26.4082 25.2886 26.5005 24.9863 26.5005 24.6426C26.5005 24.3117 26.405 24.0253 26.2141 23.7835C26.0232 23.5416 25.7464 23.3253 25.3836 23.1343C25.0208 22.937 24.5212 22.7143 23.8848 22.4661C23.0129 22.1352 22.3001 21.7819 21.7465 21.4065C21.1991 21.0246 20.7855 20.5887 20.5054 20.0986C20.2254 19.6022 20.0854 19.0199 20.0854 18.3516C20.0854 17.7407 20.2159 17.187 20.4768 16.6906C20.7441 16.1878 21.1196 15.771 21.6033 15.44C22.0517 15.1372 22.5694 14.9249 23.1565 14.8033C23.2516 14.7836 23.3216 14.7009 23.3216 14.6037V13.0721C23.3216 12.9616 23.4111 12.8721 23.5216 12.8721H24.8686C24.979 12.8721 25.0686 12.9616 25.0686 13.0721V14.5808C25.0686 14.6796 25.1409 14.7632 25.2381 14.7815C25.8822 14.9031 26.4589 15.1512 26.9683 15.5259C27.4768 15.8942 27.8995 16.3806 28.2362 16.985C28.2872 17.0765 28.2548 17.1911 28.1654 17.2457L26.5328 18.2443C26.4367 18.3031 26.3114 18.2706 26.251 18.1755C26.0022 17.7841 25.7194 17.4801 25.4027 17.2634C25.0463 17.0088 24.6485 16.8815 24.2094 16.8815C23.8976 16.8815 23.6143 16.942 23.3598 17.0629C23.1116 17.1838 22.9143 17.3525 22.7679 17.5688C22.6279 17.7852 22.5579 18.0302 22.5579 18.3039C22.5579 18.603 22.6438 18.864 22.8156 19.0867C22.9875 19.3095 23.258 19.5227 23.6271 19.7263C24.0026 19.93 24.5181 20.1527 25.1736 20.3945C26.0327 20.7191 26.736 21.066 27.2833 21.4351C27.8306 21.7978 28.2443 22.2274 28.5243 22.7238C28.8107 23.2202 28.9539 23.8089 28.9539 24.4899C28.9539 25.1963 28.7916 25.8391 28.467 26.4183C28.1488 26.9974 27.697 27.4715 27.1115 27.8407C26.5709 28.1756 25.9489 28.3939 25.2455 28.4955C25.1449 28.5101 25.0686 28.5952 25.0686 28.6968V30.3041C25.0686 30.4145 24.979 30.5041 24.8686 30.5041H23.5216C23.4111 30.5041 23.3216 30.4145 23.3216 30.3041V28.6532Z" fill="#E2F7F5"/>
<path id="$ (Stroke)" fill-rule="evenodd" clip-rule="evenodd" d="M20.0132 27.7217L20.0107 27.7193C19.2086 26.9383 18.7014 25.9629 18.483 24.8217C18.3856 24.313 18.7135 23.8438 19.1873 23.7272L21.2048 23.2309C21.7514 23.0964 22.2584 23.458 22.3671 23.9613C22.4905 24.5326 22.7187 24.9135 23.0133 25.1677C23.3519 25.4482 23.7986 25.611 24.4097 25.611C24.7147 25.611 24.9607 25.5572 25.1622 25.4668L25.1673 25.4645L25.1673 25.4645C25.3723 25.3743 25.512 25.2567 25.6112 25.1164C25.6993 24.9919 25.7504 24.8435 25.7504 24.6426C25.7504 24.467 25.7038 24.3476 25.6253 24.2482C25.5171 24.1111 25.3332 23.9554 25.0341 23.798L25.0251 23.7933L25.0251 23.7932C24.7027 23.6178 24.2371 23.4086 23.6153 23.1661C22.7099 22.8222 21.9414 22.4449 21.3254 22.0272L21.3171 22.0216L21.3172 22.0215C20.6952 21.5876 20.1984 21.0732 19.8541 20.4707L19.852 20.4671L19.8521 20.4671C19.4984 19.8402 19.3353 19.1266 19.3353 18.3516C19.3353 17.6302 19.4903 16.9551 19.8128 16.3416L19.8144 16.3385L19.8144 16.3385C20.1403 15.7256 20.599 15.2183 21.1796 14.821L21.1834 14.8185L21.1834 14.8185C21.6034 14.5348 22.0678 14.322 22.5714 14.176V13.0721C22.5714 12.5474 22.9968 12.1221 23.5214 12.1221H24.8684C25.3931 12.1221 25.8184 12.5474 25.8184 13.0721V14.1474C26.3958 14.3086 26.9281 14.5659 27.4103 14.9201C28.0151 15.3586 28.5073 15.9307 28.8913 16.6201C29.1458 17.0769 28.9754 17.6293 28.5566 17.8855L26.924 18.8841C26.4598 19.168 25.8857 18.9991 25.6179 18.5779C25.4125 18.2547 25.1965 18.0311 24.979 17.8823L24.9728 17.8781L24.9666 17.8737C24.7378 17.7102 24.4925 17.6315 24.2093 17.6315C23.9984 17.6315 23.8278 17.6714 23.6848 17.7388C23.5525 17.8038 23.461 17.885 23.3934 17.9826C23.3393 18.0685 23.3077 18.1688 23.3077 18.3039C23.3077 18.4485 23.3454 18.5457 23.4093 18.6286C23.4949 18.7396 23.6685 18.8924 23.9869 19.0683C24.3173 19.2473 24.7945 19.4553 25.433 19.6909L25.4385 19.6929L25.4385 19.6929C26.3314 20.0303 27.0904 20.4008 27.7001 20.8116C28.3288 21.2288 28.8296 21.7401 29.1756 22.3522C29.5379 22.9816 29.7038 23.7035 29.7038 24.4899C29.7038 25.3151 29.513 26.0845 29.1227 26.7822C28.7404 27.4768 28.1982 28.0421 27.5113 28.4751L27.5063 28.4782L27.5063 28.4782C26.9954 28.7947 26.4306 29.0179 25.8184 29.1531V30.3041C25.8184 30.8287 25.3931 31.2541 24.8684 31.2541H23.5214C22.9968 31.2541 22.5714 30.8287 22.5714 30.3041V29.0984C21.5783 28.8566 20.7179 28.4017 20.0132 27.7217ZM28.5242 22.7238C28.2441 22.2274 27.8305 21.7978 27.2832 21.4351C26.7358 21.066 26.0326 20.7191 25.1734 20.3945C24.5179 20.1527 24.0024 19.93 23.6269 19.7263C23.2578 19.5227 22.9873 19.3095 22.8155 19.0867C22.6437 18.864 22.5577 18.603 22.5577 18.3039C22.5577 18.0302 22.6277 17.7852 22.7678 17.5688C22.9141 17.3525 23.1114 17.1838 23.3596 17.0629C23.6142 16.942 23.8974 16.8815 24.2093 16.8815C24.6484 16.8815 25.0461 17.0088 25.4025 17.2634C25.7193 17.4801 26.002 17.7841 26.2508 18.1755C26.3113 18.2706 26.4366 18.3031 26.5327 18.2443L28.1653 17.2457C28.2546 17.1911 28.287 17.0765 28.2361 16.985C27.8993 16.3806 27.4767 15.8942 26.9681 15.5259C26.4587 15.1512 25.882 14.9031 25.2379 14.7815C25.1408 14.7632 25.0684 14.6796 25.0684 14.5808V13.0721C25.0684 12.9616 24.9789 12.8721 24.8684 12.8721H23.5214C23.411 12.8721 23.3214 12.9616 23.3214 13.0721V14.6037C23.3214 14.7009 23.2515 14.7836 23.1563 14.8033C22.5693 14.9249 22.0516 15.1372 21.6031 15.44C21.1194 15.771 20.7439 16.1878 20.4767 16.6906C20.2157 17.187 20.0853 17.7407 20.0853 18.3516C20.0853 19.0199 20.2253 19.6022 20.5053 20.0986C20.7853 20.5887 21.199 21.0246 21.7463 21.4065C22.3 21.7819 23.0128 22.1352 23.8847 22.4661C24.5211 22.7143 25.0207 22.937 25.3834 23.1343C25.7462 23.3253 26.023 23.5416 26.214 23.7835C26.4049 24.0253 26.5004 24.3117 26.5004 24.6426C26.5004 24.9863 26.4081 25.2886 26.2235 25.5495C26.039 25.8105 25.7876 26.0109 25.4694 26.151C25.1575 26.291 24.8043 26.361 24.4097 26.361C23.6524 26.361 23.0255 26.1541 22.5291 25.7405C22.0832 25.3583 21.7848 24.818 21.634 24.1196C21.6094 24.0058 21.4971 23.9313 21.384 23.9591L19.3665 24.4555C19.2655 24.4803 19.2001 24.5786 19.2196 24.6807C19.4112 25.6816 19.8493 26.5154 20.5339 27.182C21.2226 27.8465 22.0949 28.2702 23.1506 28.453C23.2484 28.4699 23.3214 28.5539 23.3214 28.6532V30.3041C23.3214 30.4145 23.411 30.5041 23.5214 30.5041H24.8684C24.9789 30.5041 25.0684 30.4145 25.0684 30.3041V28.6968C25.0684 28.5952 25.1448 28.5101 25.2454 28.4955C25.9487 28.3939 26.5707 28.1756 27.1113 27.8407C27.6968 27.4715 28.1487 26.9974 28.4669 26.4183C28.7915 25.8391 28.9538 25.1963 28.9538 24.4899C28.9538 23.8089 28.8106 23.2202 28.5242 22.7238Z" fill="#02363D"/>
<path id="Vector" d="M38.5883 10.4126C31.771 3.16321 20.4211 2.86374 13.2379 9.7438C6.0545 16.6239 5.75742 28.0783 12.5749 35.3276C19.3922 42.5773 30.7424 42.8768 37.9256 35.9966C45.109 29.1167 45.4053 17.6623 38.5883 10.4126ZM15.6717 32.3619C10.4776 26.8382 10.7035 18.1112 16.1768 12.8693C21.6501 7.62712 30.2971 7.85548 35.4915 13.379C40.6856 18.9024 40.4595 27.6294 34.9864 32.8715C29.5134 38.1135 20.8658 37.8851 15.6717 32.3619Z" fill="#176F6F" stroke="#02363D" stroke-miterlimit="10"/>
<path id="Vector_2" d="M36.2251 8.37951C29.4078 1.13021 18.0579 0.830305 10.8744 7.71062C3.69115 14.5906 3.39424 26.0452 10.2117 33.2946C17.0291 40.5439 28.3791 40.8435 35.5624 33.9634C42.7457 27.0833 43.0424 15.629 36.2251 8.37951ZM13.3085 30.3285C8.11434 24.8051 8.34062 16.078 13.8136 10.836C19.2866 5.59395 27.9341 5.82213 33.1282 11.3456C38.3222 16.8691 38.0963 25.596 32.6233 30.8382C27.1503 36.0801 18.5027 35.852 13.3085 30.3285Z" fill="#2CA8A1" stroke="#02363D" stroke-miterlimit="10"/>
<path id="Vector_3" d="M20.7344 7.33591L24.5977 9.09037C24.5977 9.09037 29.1048 9.02543 32.0667 10.7149C32.0667 10.7149 30.1351 8.24566 26.4649 7.40085C22.7948 6.55614 20.7344 7.33591 20.7344 7.33591Z" fill="#011214"/>
</g>
<path id="Vector_4" d="M24.3997 48.0001C29.8962 48.0001 34.3521 47.4885 34.3521 46.8575C34.3521 46.2264 29.8962 45.7148 24.3997 45.7148C18.9031 45.7148 14.4473 46.2264 14.4473 46.8575C14.4473 47.4885 18.9031 48.0001 24.3997 48.0001Z" fill="#011214"/>
</g>
</svg>
