<svg width="64" height="65" viewBox="0 0 64 65" fill="none" xmlns="http://www.w3.org/2000/svg">
<path d="M31.8905 56.6299C31.8905 58.1773 27.4461 59.4316 21.9637 59.4316C16.4813 59.4316 12.037 58.1773 12.037 56.6299C12.037 55.0825 16.4813 53.8281 21.9637 53.8281C27.4461 53.8281 31.8905 55.0825 31.8905 56.6299Z" fill="#02363D"/>
<path d="M8.52937 36.965C7.8447 35.8673 8.36669 34.4182 9.59409 34.0092L16.2365 31.7958C17.1058 31.5061 18.0608 31.8442 18.5541 32.6164L29.7625 50.1578C30.0707 50.6402 30.571 50.9674 31.1365 51.0565L33.7815 51.4734C34.8118 51.6358 34.9366 53.0693 33.9498 53.4072L22.9575 57.1718C22.077 57.4734 21.105 57.1278 20.6125 56.3381L8.52937 36.965Z" fill="#218C88"/>
<path d="M17.4549 32.5877C16.2275 32.9967 15.7055 34.4458 16.3902 35.5435L26.1585 50.9319C26.7089 51.7989 27.6883 52.2525 28.6698 52.5544C30.1846 53.0204 30.8599 54.0536 31.3961 54.3217L33.9498 53.4076C34.9366 53.0697 34.8118 51.6361 33.7815 51.4738L31.1365 51.0569C30.571 50.9678 30.0707 50.6406 29.7625 50.1582L18.5541 32.6167C18.4813 32.5027 18.3984 32.3982 18.3071 32.3037L17.4549 32.5877Z" fill="#176F6F"/>
<path d="M8.52937 36.965C7.8447 35.8673 8.36669 34.4182 9.59409 34.0092L16.2365 31.7958C17.1058 31.5061 18.0608 31.8442 18.5541 32.6164L29.7625 50.1578C30.0707 50.6402 30.571 50.9674 31.1365 51.0565L33.7815 51.4734C34.8118 51.6358 34.9366 53.0693 33.9498 53.4072L22.9575 57.1718C22.077 57.4734 21.105 57.1278 20.6125 56.3381L8.52937 36.965Z" stroke="#02363D"/>
<path d="M17.7367 46.5234L21.0606 51.848" stroke="#02363D" stroke-linecap="round"/>
<circle cx="7.09325" cy="36.585" r="4.86888" transform="rotate(-19.7649 7.09325 36.585)" fill="#36C5BA" stroke="#02363D"/>
<rect x="2.8623" y="28.6592" width="25.3097" height="17.5448" rx="8.7724" transform="rotate(-19.7649 2.8623 28.6592)" fill="#36C5BA"/>
<path d="M8.73669 31.8809L13.27 30.2519" stroke="#02363D" stroke-linecap="round"/>
<path d="M27.0821 36.9904C26.1851 38.0565 25.0031 38.9072 23.5974 39.4123L16.7923 41.8576C12.6696 43.339 8.13874 41.303 6.48242 37.2968L8.86013 38.0614C11.3073 38.8484 13.9474 38.7935 16.3598 37.9056L20.3425 36.4395C22.679 35.5795 25.1148 35.8745 27.0821 36.9904Z" fill="#218C88"/>
<rect x="2.8623" y="28.6592" width="25.3097" height="17.5448" rx="8.7724" transform="rotate(-19.7649 2.8623 28.6592)" stroke="#02363D"/>
<path d="M15.5447 24.2123L35.2409 9.07129L45.3845 37.3007C45.8477 38.5898 44.9073 39.9525 43.5377 39.9767L21.487 40.3665L20.1668 38.7398C16.8501 34.653 15.1992 29.4643 15.5447 24.2123Z" fill="#A8E6E1"/>
<path d="M41.1379 40.0191L21.4869 40.3665L20.1667 38.7398C19.7594 38.2379 19.1869 37.5206 18.8304 36.9874L36.5208 31.9912L41.1379 40.0191Z" fill="#36C5BA"/>
<path d="M15.5447 24.2123L35.2409 9.07129L45.3845 37.3007C45.8477 38.5898 44.9073 39.9525 43.5377 39.9767L21.487 40.3665L20.1668 38.7398C16.8501 34.653 15.1992 29.4643 15.5447 24.2123Z" stroke="#02363D"/>
<path d="M9.77283 35.0186L14.3061 33.3896" stroke="#02363D" stroke-linecap="round"/>
<path d="M19.3987 26.4251L24.5289 23.2617" stroke="#02363D" stroke-linecap="round"/>
<ellipse cx="40.8124" cy="24.3457" rx="8.98783" ry="16.3938" transform="rotate(-19.7649 40.8124 24.3457)" fill="#176F6F"/>
<mask id="path-17-inside-1_13579_19959" fill="white">
<path fill-rule="evenodd" clip-rule="evenodd" d="M32.8514 10.6973C37.2037 10.8176 42.2883 15.9769 44.9496 23.3833C47.3907 30.1768 47.0561 36.8097 44.4526 40.0704C40.1003 39.95 35.0157 34.7907 32.3543 27.3843C29.9132 20.5909 30.2479 13.958 32.8514 10.6973Z"/>
</mask>
<path fill-rule="evenodd" clip-rule="evenodd" d="M32.8514 10.6973C37.2037 10.8176 42.2883 15.9769 44.9496 23.3833C47.3907 30.1768 47.0561 36.8097 44.4526 40.0704C40.1003 39.95 35.0157 34.7907 32.3543 27.3843C29.9132 20.5909 30.2479 13.958 32.8514 10.6973Z" fill="#2CA8A1"/>
<path d="M32.8514 10.6973L32.879 9.69765L32.3809 9.68388L32.07 10.0733L32.8514 10.6973ZM44.4526 40.0704L44.4249 41.07L44.9231 41.0837L45.234 40.6943L44.4526 40.0704ZM32.8238 11.6969C34.6303 11.7468 36.7568 12.8648 38.8143 15.0016C40.8515 17.1174 42.7189 20.1324 44.0086 23.7215L45.8907 23.0452C44.519 19.2278 42.5135 15.96 40.255 13.6144C38.0168 11.2899 35.4248 9.76803 32.879 9.69765L32.8238 11.6969ZM44.0086 23.7215C45.191 27.0121 45.6924 30.2419 45.5935 33.016C45.4938 35.8094 44.7908 38.0441 43.6711 39.4464L45.234 40.6943C46.7179 38.8359 47.4839 36.1238 47.5922 33.0873C47.7012 30.0314 47.1494 26.548 45.8907 23.0452L44.0086 23.7215ZM44.4802 39.0707C42.6737 39.0208 40.5472 37.9029 38.4897 35.766C36.4525 33.6502 34.5851 30.6352 33.2954 27.0461L31.4132 27.7225C32.7849 31.5398 34.7905 34.8076 37.049 37.1532C39.2872 39.4777 41.8791 40.9996 44.4249 41.07L44.4802 39.0707ZM33.2954 27.0461C32.113 23.7555 31.6116 20.5257 31.7105 17.7517C31.8101 14.9582 32.5132 12.7235 33.6329 11.3212L32.07 10.0733C30.5861 11.9317 29.8201 14.6438 29.7118 17.6804C29.6028 20.7363 30.1546 24.2197 31.4132 27.7225L33.2954 27.0461Z" fill="#02363D" mask="url(#path-17-inside-1_13579_19959)"/>
<mask id="path-19-inside-2_13579_19959" fill="white">
<path fill-rule="evenodd" clip-rule="evenodd" d="M34.8466 32.6256C33.8903 31.0606 33.0414 29.2976 32.354 27.3848C31.6667 25.472 31.1994 23.572 30.9409 21.7564C31.3526 21.4745 31.8067 21.2401 32.2982 21.0634C35.4 19.9489 38.8181 21.5599 39.9327 24.6617C41.0473 27.7635 39.4363 31.1815 36.3345 32.2961C35.843 32.4727 35.3435 32.5809 34.8466 32.6256Z"/>
</mask>
<path fill-rule="evenodd" clip-rule="evenodd" d="M34.8466 32.6256C33.8903 31.0606 33.0414 29.2976 32.354 27.3848C31.6667 25.472 31.1994 23.572 30.9409 21.7564C31.3526 21.4745 31.8067 21.2401 32.2982 21.0634C35.4 19.9489 38.8181 21.5599 39.9327 24.6617C41.0473 27.7635 39.4363 31.1815 36.3345 32.2961C35.843 32.4727 35.3435 32.5809 34.8466 32.6256Z" fill="#A8E6E1"/>
<path d="M34.8466 32.6256L33.9933 33.147L34.3172 33.6772L34.9361 33.6215L34.8466 32.6256ZM30.9409 21.7564L30.376 20.9312L29.8633 21.2822L29.9509 21.8973L30.9409 21.7564ZM35.6999 32.1042C34.7801 30.5989 33.9602 28.8975 33.2951 27.0466L31.4129 27.7229C32.1225 29.6977 33.0005 31.5223 33.9933 33.147L35.6999 32.1042ZM33.2951 27.0466C32.63 25.1958 32.1796 23.3618 31.9309 21.6154L29.9509 21.8973C30.2193 23.7822 30.7034 25.7483 31.4129 27.7229L33.2951 27.0466ZM31.5058 22.5815C31.8478 22.3474 32.2258 22.1521 32.6364 22.0045L31.9601 20.1224C31.3877 20.328 30.8575 20.6016 30.376 20.9312L31.5058 22.5815ZM32.6364 22.0045C35.2185 21.0767 38.0638 22.4178 38.9916 24.9998L40.8738 24.3235C39.5724 20.7019 35.5816 18.821 31.9601 20.1224L32.6364 22.0045ZM38.9916 24.9998C39.9194 27.5819 38.5784 30.4272 35.9963 31.355L36.6726 33.2372C40.2942 31.9359 42.1751 27.9451 40.8738 24.3235L38.9916 24.9998ZM35.9963 31.355C35.5857 31.5026 35.1699 31.5925 34.7571 31.6296L34.9361 33.6215C35.5172 33.5693 36.1002 33.4429 36.6726 33.2372L35.9963 31.355Z" fill="#02363D" mask="url(#path-19-inside-2_13579_19959)"/>
<path fill-rule="evenodd" clip-rule="evenodd" d="M39.4309 23.6026C39.1286 26.1349 37.4391 28.4062 34.8758 29.3273C34.3532 29.5151 33.8228 29.6365 33.294 29.6958C32.9552 28.954 32.6406 28.1826 32.354 27.3852C31.6667 25.4724 31.1994 23.5724 30.9409 21.7567C31.3527 21.4749 31.8067 21.2404 32.2982 21.0638C35.0243 20.0843 37.9946 21.2099 39.4309 23.6026Z" fill="white"/>
<mask id="path-22-inside-3_13579_19959" fill="white">
<path fill-rule="evenodd" clip-rule="evenodd" d="M34.8466 32.6256C33.8903 31.0606 33.0414 29.2976 32.354 27.3848C31.6667 25.472 31.1994 23.572 30.9409 21.7564C31.3526 21.4745 31.8067 21.2401 32.2982 21.0634C35.4 19.9489 38.8181 21.5599 39.9327 24.6617C41.0473 27.7635 39.4363 31.1815 36.3345 32.2961C35.843 32.4727 35.3435 32.5809 34.8466 32.6256Z"/>
</mask>
<path d="M34.8466 32.6256L33.9933 33.147L34.3172 33.6772L34.9361 33.6215L34.8466 32.6256ZM30.9409 21.7564L30.376 20.9312L29.8633 21.2822L29.9509 21.8973L30.9409 21.7564ZM35.6999 32.1042C34.7801 30.5989 33.9602 28.8975 33.2951 27.0466L31.4129 27.7229C32.1225 29.6977 33.0005 31.5223 33.9933 33.147L35.6999 32.1042ZM33.2951 27.0466C32.63 25.1958 32.1796 23.3618 31.9309 21.6154L29.9509 21.8973C30.2193 23.7822 30.7034 25.7483 31.4129 27.7229L33.2951 27.0466ZM31.5058 22.5815C31.8478 22.3474 32.2258 22.1521 32.6364 22.0045L31.9601 20.1224C31.3877 20.328 30.8575 20.6016 30.376 20.9312L31.5058 22.5815ZM32.6364 22.0045C35.2185 21.0767 38.0638 22.4178 38.9916 24.9998L40.8738 24.3235C39.5724 20.7019 35.5816 18.821 31.9601 20.1224L32.6364 22.0045ZM38.9916 24.9998C39.9194 27.5819 38.5784 30.4272 35.9963 31.355L36.6726 33.2372C40.2942 31.9359 42.1751 27.9451 40.8738 24.3235L38.9916 24.9998ZM35.9963 31.355C35.5857 31.5026 35.1699 31.5925 34.7571 31.6296L34.9361 33.6215C35.5172 33.5693 36.1002 33.4429 36.6726 33.2372L35.9963 31.355Z" fill="#02363D" mask="url(#path-22-inside-3_13579_19959)"/>
<path d="M48.8002 21.4755C50.3082 25.6722 50.7315 29.7838 50.2195 33.0279C49.7042 36.2927 48.2711 38.5544 46.1871 39.3032C44.103 40.0521 41.5581 39.2198 39.0828 37.0297C36.6231 34.8534 34.3326 31.4127 32.8246 27.216C31.3166 23.0192 30.8933 18.9076 31.4053 15.6635C31.9206 12.3988 33.3537 10.1371 35.4377 9.38824C37.5218 8.63939 40.0666 9.47167 42.542 11.6618C45.0017 13.8381 47.2922 17.2787 48.8002 21.4755Z" stroke="#02363D"/>
<path d="M47.2124 42.2717C50.2718 41.1724 52.2058 38.1143 52.9503 34.2294C53.6971 30.3319 53.2737 25.505 51.5326 20.6596C49.7915 15.8141 47.0459 11.8217 43.9891 9.29092C40.9423 6.76832 37.5042 5.64066 34.4448 6.73998C31.3854 7.8393 29.4513 10.8974 28.7069 14.7823C27.9601 18.6798 28.3835 23.5067 30.1246 28.3521C31.8657 33.1976 34.6113 37.19 37.6681 39.7208C40.7149 42.2434 44.153 43.371 47.2124 42.2717ZM48.8003 21.4755C50.3083 25.6722 50.7315 29.7839 50.2195 33.0279C49.7043 36.2927 48.2712 38.5544 46.1871 39.3032C44.1031 40.0521 41.5582 39.2198 39.0829 37.0297C36.6232 34.8534 34.3327 31.4127 32.8247 27.216C31.3166 23.0193 30.8934 18.9076 31.4054 15.6636C31.9206 12.3988 33.3538 10.1371 35.4378 9.38825C37.5218 8.6394 40.0667 9.47168 42.5421 11.6618C45.0018 13.8381 47.2922 17.2787 48.8003 21.4755Z" fill="#36C5BA" stroke="#02363D"/>
<path d="M54.2542 20.8037L62.0867 17.9892" stroke="#02363D" stroke-linecap="round"/>
<path d="M52.8031 16.7646L56.305 9.33452" stroke="#02363D" stroke-linecap="round"/>
<path d="M63.1353 28.3447L55.7051 24.8428" stroke="#02363D" stroke-linecap="round"/>
<path fill-rule="evenodd" clip-rule="evenodd" d="M23.7089 43.5547C23.8575 43.1499 24.2003 42.8164 24.7019 42.6501C25.7052 42.3176 26.9642 42.7798 27.5139 43.6826L28.8114 45.8132C29.0807 46.2556 29.1298 46.7216 28.9918 47.1211L28.3025 48.9985C28.4405 48.5991 28.3914 48.1331 28.122 47.6907L26.8246 45.56C26.2749 44.6573 25.0159 44.195 24.0126 44.5276C23.5109 44.6939 23.1682 45.0274 23.0196 45.4321L23.7089 43.5547Z" fill="#AAAAAA"/>
<path fill-rule="evenodd" clip-rule="evenodd" d="M27.9901 48.05L27.3008 49.9275L27.9901 48.05Z" fill="#AAAAAA"/>
<path fill-rule="evenodd" clip-rule="evenodd" d="M27.9898 48.0508C26.9866 48.3831 25.7278 47.9209 25.1782 47.0183L23.8807 44.8876C23.6059 44.4362 23.5604 43.9601 23.709 43.5554L23.0196 45.4328C22.871 45.8376 22.9165 46.3137 23.1914 46.765L24.4889 48.8957C25.0386 49.7985 26.2976 50.2607 27.3009 49.9282L27.3012 49.9272C27.8127 49.7576 28.1589 49.4141 28.3025 48.9984L28.974 47.1696C28.9802 47.1535 28.9862 47.1373 28.9918 47.121L28.974 47.1696C28.8207 47.5634 28.4817 47.887 27.9901 48.0499L27.9898 48.0508Z" fill="#218C88"/>
<path d="M27.9898 48.0508L28.147 48.5255L28.3759 48.4496L28.4591 48.2233L27.9898 48.0508ZM25.1782 47.0183L24.7511 47.2783L25.1782 47.0183ZM23.8807 44.8876L23.4537 45.1476L23.4537 45.1476L23.8807 44.8876ZM23.0196 45.4328L22.5503 45.2605L23.0196 45.4328ZM23.1914 46.765L23.6185 46.505L23.6185 46.505L23.1914 46.765ZM24.4889 48.8957L24.0618 49.1558L24.4889 48.8957ZM27.3009 49.9282L27.4582 50.4028L27.6871 50.3269L27.7702 50.1005L27.3009 49.9282ZM27.3012 49.9272L27.1438 49.4527L26.915 49.5286L26.8318 49.7549L27.3012 49.9272ZM28.3025 48.9984L27.833 48.8261L27.8299 48.8352L28.3025 48.9984ZM28.9918 47.121L29.4644 47.2843L28.5224 46.9487L28.9918 47.121ZM27.9901 48.0499L27.8328 47.5753L27.604 47.6512L27.5208 47.8775L27.9901 48.0499ZM27.8326 47.5762C27.0503 47.8353 26.0338 47.462 25.6052 46.7582L24.7511 47.2783C25.4219 48.3798 26.9228 48.931 28.147 48.5255L27.8326 47.5762ZM25.6052 46.7582L24.3078 44.6275L23.4537 45.1476L24.7511 47.2783L25.6052 46.7582ZM24.3078 44.6275C24.1035 44.292 24.0877 43.9745 24.1783 43.7277L23.2396 43.383C23.033 43.9458 23.1082 44.5803 23.4537 45.1476L24.3078 44.6275ZM23.2396 43.383L22.5503 45.2605L23.489 45.6052L24.1783 43.7277L23.2396 43.383ZM22.5503 45.2605C22.3437 45.8233 22.4189 46.4578 22.7644 47.0251L23.6185 46.505C23.4142 46.1695 23.3984 45.8519 23.489 45.6052L22.5503 45.2605ZM22.7644 47.0251L24.0618 49.1558L24.9159 48.6357L23.6185 46.505L22.7644 47.0251ZM24.0618 49.1558C24.7326 50.2574 26.2339 50.8086 27.4582 50.4028L27.1435 49.4536C26.3612 49.7129 25.3446 49.3396 24.9159 48.6357L24.0618 49.1558ZM27.7702 50.1005L27.7705 50.0996L26.8318 49.7549L26.8315 49.7558L27.7702 50.1005ZM27.4586 50.4018C28.1016 50.1885 28.5753 49.74 28.7751 49.1617L27.8299 48.8352C27.7425 49.0882 27.5237 49.3267 27.1438 49.4527L27.4586 50.4018ZM28.7718 49.1708L29.4433 47.3419L28.5046 46.9972L27.8331 48.8261L28.7718 49.1708ZM28.5192 46.9577C28.5157 46.968 28.5119 46.9781 28.508 46.9883L29.4399 47.3509C29.4485 47.3288 29.4567 47.3066 29.4644 47.2843L28.5192 46.9577ZM29.4433 47.3419L29.4612 47.2933L28.5224 46.9487L28.5046 46.9972L29.4433 47.3419ZM28.508 46.9883C28.4144 47.2288 28.1984 47.4541 27.8328 47.5753L28.1474 48.5245C28.7651 48.3198 29.227 47.898 29.4399 47.3509L28.508 46.9883ZM27.5208 47.8775L27.5205 47.8784L28.4591 48.2233L28.4594 48.2224L27.5208 47.8775Z" fill="#02363D"/>
<rect width="3.82764" height="6.32227" rx="1.91382" transform="matrix(0.949212 -0.314637 0.520099 0.854106 22.8853 43.2524)" fill="#36C5BA" stroke="#02363D"/>
</svg>
