<svg width="49" height="49" viewBox="0 0 49 49" fill="none" xmlns="http://www.w3.org/2000/svg">
<path d="M24.5335 49.0001C30.03 49.0001 34.4858 48.4885 34.4858 47.8575C34.4858 47.2264 30.03 46.7148 24.5335 46.7148C19.0369 46.7148 14.5811 47.2264 14.5811 47.8575C14.5811 48.4885 19.0369 49.0001 24.5335 49.0001Z" fill="#011214"/>
<path d="M32.5076 3.35472C28.3678 2.37221 25.9194 1 25.9194 1C25.9194 1 23.4714 2.37221 19.3315 3.35472C15.5554 4.25059 11.9773 4.3323 11.9773 4.3323L9.7998 6.17539V24.7028C9.7998 35.2488 23.7422 42.564 23.7422 42.564C23.7422 42.564 27.37 40.6597 30.9247 37.3948C34.9234 34.2682 39.8619 29.1363 39.8619 22.8598V4.33241C39.8619 4.33241 36.2839 4.25059 32.5076 3.35472Z" fill="#176F6F" stroke="#02363D" stroke-width="0.75" stroke-miterlimit="10" stroke-linejoin="round"/>
<path d="M30.3303 5.19739C26.1905 4.21499 23.7422 2.84277 23.7422 2.84277C23.7422 2.84277 21.2939 4.21499 17.1541 5.19739C13.3779 6.09336 9.7998 6.17507 9.7998 6.17507V24.7025C9.7998 35.2485 23.7422 42.5637 23.7422 42.5637C23.7422 42.5637 37.6846 35.2485 37.6846 24.7025V6.17507C37.6846 6.17507 34.1066 6.09346 30.3303 5.19739Z" fill="#2CA8A1" stroke="#02363D" stroke-width="0.75" stroke-miterlimit="10" stroke-linejoin="round"/>
<path d="M28.7787 8.70253C25.6141 7.91689 23.7427 6.81934 23.7427 6.81934C23.7427 6.81934 21.8712 7.91682 18.7066 8.70253C15.8201 9.41929 13.085 9.48452 13.085 9.48452V24.3025C13.085 32.737 23.7427 38.5876 23.7427 38.5876C23.7427 38.5876 34.4004 32.737 34.4004 24.3025V9.48452C34.4004 9.48452 31.6652 9.41929 28.7787 8.70253Z" fill="#A8E6E1" stroke="#02363D" stroke-width="0.75" stroke-miterlimit="10" stroke-linejoin="round"/>
<path d="M23.7422 2.84299L25.9193 1" stroke="#02363D" stroke-width="0.75" stroke-miterlimit="10" stroke-linejoin="round"/>
<path d="M37.6846 6.1761L39.8618 4.33301" stroke="#02363D" stroke-width="0.75" stroke-miterlimit="10" stroke-linejoin="round"/>
<path d="M23.775 6.17856C24.2044 6.17856 24.5525 5.81241 24.5525 5.36076C24.5525 4.90911 24.2044 4.54297 23.775 4.54297C23.3456 4.54297 22.9976 4.90911 22.9976 5.36076C22.9976 5.81241 23.3456 6.17856 23.775 6.17856Z" fill="#02363D"/>
<path d="M11.5026 9.38344C11.932 9.38344 12.28 9.01738 12.28 8.56574C12.28 8.11417 11.932 7.74805 11.5026 7.74805C11.0732 7.74805 10.7251 8.11417 10.7251 8.56574C10.7251 9.01738 11.0732 9.38344 11.5026 9.38344Z" fill="#02363D"/>
<path d="M11.5006 21.4312C11.93 21.4312 12.2781 21.0652 12.2781 20.6136C12.2781 20.162 11.93 19.7959 11.5006 19.7959C11.0712 19.7959 10.7231 20.162 10.7231 20.6136C10.7231 21.0652 11.0712 21.4312 11.5006 21.4312Z" fill="#02363D"/>
<path d="M23.7736 41.4782C24.203 41.4782 24.5511 41.1121 24.5511 40.6605C24.5511 40.2089 24.203 39.8428 23.7736 39.8428C23.3442 39.8428 22.9961 40.2089 22.9961 40.6605C22.9961 41.1121 23.3442 41.4782 23.7736 41.4782Z" fill="#02363D"/>
<path d="M33.5387 33.3092C33.9681 33.3092 34.3162 32.9431 34.3162 32.4915C34.3162 32.0399 33.9681 31.6738 33.5387 31.6738C33.1093 31.6738 32.7612 32.0399 32.7612 32.4915C32.7612 32.9431 33.1093 33.3092 33.5387 33.3092Z" fill="#02363D"/>
<path d="M35.9567 21.5768C36.3861 21.5768 36.7341 21.2107 36.7341 20.7591C36.7341 20.3075 36.3861 19.9414 35.9567 19.9414C35.5273 19.9414 35.1792 20.3075 35.1792 20.7591C35.1792 21.2107 35.5273 21.5768 35.9567 21.5768Z" fill="#02363D"/>
<path d="M35.9337 9.54847C36.3631 9.54847 36.7112 9.18235 36.7112 8.73078C36.7112 8.27914 36.3631 7.91309 35.9337 7.91309C35.5044 7.91309 35.1562 8.27914 35.1562 8.73078C35.1562 9.18235 35.5044 9.54847 35.9337 9.54847Z" fill="#02363D"/>
<path d="M23.779 5.66834C24.1146 5.66834 24.3866 5.3963 24.3866 5.06073C24.3866 4.72516 24.1146 4.45312 23.779 4.45312C23.4434 4.45312 23.1714 4.72516 23.1714 5.06073C23.1714 5.3963 23.4434 5.66834 23.779 5.66834Z" fill="#E2F7F5" stroke="#02363D" stroke-width="0.75" stroke-miterlimit="10" stroke-linejoin="round"/>
<path d="M23.779 40.9886C24.1146 40.9886 24.3866 40.7166 24.3866 40.3811C24.3866 40.0455 24.1146 39.7734 23.779 39.7734C23.4434 39.7734 23.1714 40.0455 23.1714 40.3811C23.1714 40.7166 23.4434 40.9886 23.779 40.9886Z" fill="#E2F7F5" stroke="#02363D" stroke-width="0.75" stroke-miterlimit="10" stroke-linejoin="round"/>
<path d="M11.5027 8.88539C11.8384 8.88539 12.1104 8.61329 12.1104 8.27762C12.1104 7.94202 11.8384 7.66992 11.5027 7.66992C11.1671 7.66992 10.895 7.94202 10.895 8.27762C10.895 8.61329 11.1671 8.88539 11.5027 8.88539Z" fill="#E2F7F5" stroke="#02363D" stroke-width="0.75" stroke-miterlimit="10" stroke-linejoin="round"/>
<path d="M35.9524 8.88513C36.2879 8.88513 36.5599 8.61309 36.5599 8.27756C36.5599 7.94195 36.2879 7.66992 35.9524 7.66992C35.6168 7.66992 35.3447 7.94195 35.3447 8.27756C35.3447 8.61309 35.6168 8.88513 35.9524 8.88513Z" fill="#E2F7F5" stroke="#02363D" stroke-width="0.75" stroke-miterlimit="10" stroke-linejoin="round"/>
<path d="M11.5027 20.8961C11.8384 20.8961 12.1104 20.624 12.1104 20.2884C12.1104 19.9528 11.8384 19.6807 11.5027 19.6807C11.1671 19.6807 10.895 19.9528 10.895 20.2884C10.895 20.624 11.1671 20.8961 11.5027 20.8961Z" fill="#E2F7F5" stroke="#02363D" stroke-width="0.75" stroke-miterlimit="10" stroke-linejoin="round"/>
<path d="M35.9524 20.8959C36.2879 20.8959 36.5599 20.6238 36.5599 20.2882C36.5599 19.9527 36.2879 19.6807 35.9524 19.6807C35.6168 19.6807 35.3447 19.9527 35.3447 20.2882C35.3447 20.6238 35.6168 20.8959 35.9524 20.8959Z" fill="#E2F7F5" stroke="#02363D" stroke-width="0.75" stroke-miterlimit="10" stroke-linejoin="round"/>
<path d="M14.0711 32.7847C14.4067 32.7847 14.6788 32.5126 14.6788 32.177C14.6788 31.8414 14.4067 31.5693 14.0711 31.5693C13.7355 31.5693 13.4634 31.8414 13.4634 32.177C13.4634 32.5126 13.7355 32.7847 14.0711 32.7847Z" fill="#E2F7F5" stroke="#02363D" stroke-width="0.75" stroke-miterlimit="10" stroke-linejoin="round"/>
<path d="M33.5211 32.7855C33.8567 32.7855 34.1288 32.5135 34.1288 32.1779C34.1288 31.8423 33.8567 31.5703 33.5211 31.5703C33.1856 31.5703 32.9136 31.8423 32.9136 32.1779C32.9136 32.5135 33.1856 32.7855 33.5211 32.7855Z" fill="#E2F7F5" stroke="#02363D" stroke-width="0.75" stroke-miterlimit="10" stroke-linejoin="round"/>
<mask id="path-22-inside-1_11197_18295" fill="white">
<path fill-rule="evenodd" clip-rule="evenodd" d="M25.9835 14.6318H21.2125V19.062H16.7822L16.7822 23.8331H21.2125V28.2634H25.9835V23.8331H30.4138V19.062H25.9835V14.6318Z"/>
</mask>
<path fill-rule="evenodd" clip-rule="evenodd" d="M25.9835 14.6318H21.2125V19.062H16.7822L16.7822 23.8331H21.2125V28.2634H25.9835V23.8331H30.4138V19.062H25.9835V14.6318Z" fill="#E2F7F5"/>
<path d="M21.2125 14.6318V13.8818H20.4625V14.6318H21.2125ZM25.9835 14.6318H26.7335V13.8818H25.9835V14.6318ZM21.2125 19.062V19.812H21.9625V19.062H21.2125ZM16.7822 19.062V18.312H16.0322L16.0322 19.062H16.7822ZM16.7822 23.8331H16.0322L16.0322 24.5831H16.7822V23.8331ZM21.2125 23.8331H21.9625V23.0831H21.2125V23.8331ZM21.2125 28.2634H20.4625V29.0134H21.2125V28.2634ZM25.9835 28.2634V29.0134H26.7335V28.2634H25.9835ZM25.9835 23.8331V23.0831H25.2335V23.8331H25.9835ZM30.4138 23.8331V24.5831H31.1638V23.8331H30.4138ZM30.4138 19.062H31.1638V18.312H30.4138V19.062ZM25.9835 19.062H25.2335V19.812H25.9835V19.062ZM21.2125 15.3818H25.9835V13.8818H21.2125V15.3818ZM21.9625 19.062V14.6318H20.4625V19.062H21.9625ZM16.7822 19.812H21.2125V18.312H16.7822V19.812ZM17.5322 23.8331L17.5322 19.062H16.0322L16.0322 23.8331H17.5322ZM21.2125 23.0831H16.7822V24.5831H21.2125V23.0831ZM21.9625 28.2634V23.8331H20.4625V28.2634H21.9625ZM25.9835 27.5134H21.2125V29.0134H25.9835V27.5134ZM25.2335 23.8331V28.2634H26.7335V23.8331H25.2335ZM30.4138 23.0831H25.9835V24.5831H30.4138V23.0831ZM29.6638 19.062V23.8331H31.1638V19.062H29.6638ZM25.9835 19.812H30.4138V18.312H25.9835V19.812ZM25.2335 14.6318V19.062H26.7335V14.6318H25.2335Z" fill="#02363D" mask="url(#path-22-inside-1_11197_18295)"/>
</svg>
