<svg width="108" height="72" viewBox="0 0 108 72" fill="none" xmlns="http://www.w3.org/2000/svg">
<g clip-path="url(#clip0_13082_17984)">
<path fill-rule="evenodd" clip-rule="evenodd" d="M77.3163 19.9388C76.2948 19.9388 75.2924 20.0014 74.3154 20.1218C74.9139 18.8831 75.2449 17.5213 75.2449 16.0918C75.2449 10.3717 69.9454 5.73469 63.4082 5.73469C59.8847 5.73469 56.7209 7.08175 54.5525 9.2194C51.7923 4.34784 46.0612 1 39.4388 1C30.1232 1 22.5714 7.62436 22.5714 15.7959C22.5714 16.8187 22.6897 17.8173 22.915 18.7816C13.4749 19.2237 6 25.1372 6 32.3673C6 38.5733 11.5072 43.8092 19.0372 45.4476C19.4275 52.9898 26.5575 59 35.2959 59C40.8947 59 45.8333 56.5327 48.7619 52.7761C51.3598 55.5092 55.1035 57.2245 59.2653 57.2245C65.5403 57.2245 70.8649 53.325 72.7446 47.9167C74.2074 48.1977 75.739 48.3469 77.3163 48.3469C87.6125 48.3469 95.9592 41.9876 95.9592 34.1429C95.9592 26.2982 87.6125 19.9388 77.3163 19.9388Z" fill="#218C88"/>
<path d="M74.3154 20.1218L73.8652 19.9043L73.4661 20.7303L74.3766 20.6181L74.3154 20.1218ZM54.5525 9.2194L54.1175 9.46588L54.439 10.0334L54.9035 9.57547L54.5525 9.2194ZM22.915 18.7816L22.9384 19.2811L23.5386 19.253L23.4019 18.6679L22.915 18.7816ZM19.0372 45.4476L19.5366 45.4218L19.5168 45.0403L19.1435 44.9591L19.0372 45.4476ZM48.7619 52.7761L49.1243 52.4316L48.7244 52.0109L48.3676 52.4687L48.7619 52.7761ZM72.7446 47.9167L72.8389 47.4257L72.4142 47.3441L72.2723 47.7526L72.7446 47.9167ZM74.3766 20.6181C75.3332 20.5001 76.3152 20.4388 77.3163 20.4388V19.4388C76.2743 19.4388 75.2515 19.5026 74.2542 19.6256L74.3766 20.6181ZM74.7449 16.0918C74.7449 17.4428 74.4324 18.7306 73.8652 19.9043L74.7656 20.3394C75.3955 19.0357 75.7449 17.5997 75.7449 16.0918H74.7449ZM63.4082 6.23469C69.7341 6.23469 74.7449 10.7085 74.7449 16.0918H75.7449C75.7449 10.035 70.1568 5.23469 63.4082 5.23469V6.23469ZM54.9035 9.57547C56.9748 7.53351 60.0111 6.23469 63.4082 6.23469V5.23469C59.7584 5.23469 56.4669 6.62999 54.2015 8.86334L54.9035 9.57547ZM39.4388 1.5C45.8977 1.5 51.4539 4.76487 54.1175 9.46588L54.9875 8.97292C52.1307 3.93081 46.2248 0.5 39.4388 0.5V1.5ZM23.0714 15.7959C23.0714 7.96004 30.3358 1.5 39.4388 1.5V0.5C29.9106 0.5 22.0714 7.28868 22.0714 15.7959H23.0714ZM23.4019 18.6679C23.1852 17.7404 23.0714 16.78 23.0714 15.7959H22.0714C22.0714 16.8574 22.1942 17.8942 22.4281 18.8954L23.4019 18.6679ZM6.5 32.3673C6.5 25.519 13.6331 19.7168 22.9384 19.2811L22.8916 18.2822C13.3168 18.7305 5.5 24.7554 5.5 32.3673H6.5ZM19.1435 44.9591C11.742 43.3486 6.5 38.2481 6.5 32.3673H5.5C5.5 38.8984 11.2723 44.2698 18.9309 45.9362L19.1435 44.9591ZM35.2959 58.5C26.7638 58.5 19.9102 52.6424 19.5366 45.4218L18.5379 45.4735C18.9448 53.3373 26.3512 59.5 35.2959 59.5V58.5ZM48.3676 52.4687C45.5396 56.0962 40.7505 58.5 35.2959 58.5V59.5C41.039 59.5 46.127 56.9693 49.1562 53.0835L48.3676 52.4687ZM59.2653 56.7245C55.2427 56.7245 51.6293 55.067 49.1243 52.4316L48.3995 53.1206C51.0903 55.9514 54.9644 57.7245 59.2653 57.7245V56.7245ZM72.2723 47.7526C70.4641 52.9553 65.3322 56.7245 59.2653 56.7245V57.7245C65.7484 57.7245 71.2658 53.6947 73.2169 48.0809L72.2723 47.7526ZM77.3163 47.8469C75.7705 47.8469 74.2705 47.7007 72.8389 47.4257L72.6503 48.4077C74.1443 48.6947 75.7075 48.8469 77.3163 48.8469V47.8469ZM95.4592 34.1429C95.4592 37.8759 93.4744 41.2909 90.1958 43.7889C86.9167 46.2873 82.3648 47.8469 77.3163 47.8469V48.8469C82.564 48.8469 87.3335 47.2269 90.8018 44.5844C94.2706 41.9415 96.4592 38.2545 96.4592 34.1429H95.4592ZM77.3163 20.4388C82.3648 20.4388 86.9167 21.9984 90.1958 24.4968C93.4744 26.9948 95.4592 30.4098 95.4592 34.1429H96.4592C96.4592 30.0312 94.2706 26.3442 90.8018 23.7013C87.3335 21.0588 82.564 19.4388 77.3163 19.4388V20.4388Z" fill="#02363D"/>
<path fill-rule="evenodd" clip-rule="evenodd" d="M47.5463 2.81818C45.7694 5.25458 41.912 8.63891 35.0882 10.4999C28.033 12.4241 35.9833 12.7627 45.4254 13.1649C47.7605 13.2644 50.1869 13.3678 52.5 13.4999L56 8.99995L55.4599 8.41697C55.1411 8.66988 54.8382 8.93778 54.5525 9.21941C53.0171 6.50951 50.5624 4.2711 47.5463 2.81818Z" fill="#0D5256"/>
<path fill-rule="evenodd" clip-rule="evenodd" d="M74.3488 20.1177C74.3376 20.1191 74.3265 20.1205 74.3153 20.1218C74.9138 18.8831 75.2448 17.5213 75.2448 16.0918C75.2448 14.1511 74.6347 12.335 73.5733 10.7824C69.3948 15.3923 65.365 15.7511 63.6208 15.203L66.4893 23.4505L73.7399 20.5044L74.3488 20.1177Z" fill="#0D5256"/>
<path fill-rule="evenodd" clip-rule="evenodd" d="M95.9579 33.977C89.1254 39.9297 85.8121 40.4872 85 39.9999L81.5 47.5L82.6209 47.7637C90.333 46.0229 95.9592 40.5835 95.9592 34.1429C95.9592 34.0875 95.9588 34.0322 95.9579 33.977Z" fill="#0D5256"/>
<path d="M74.3154 20.1218L73.8652 19.9043L73.4661 20.7303L74.3766 20.6181L74.3154 20.1218ZM54.5525 9.2194L54.1175 9.46588L54.439 10.0334L54.9035 9.57547L54.5525 9.2194ZM22.915 18.7816L22.9384 19.2811L23.5386 19.253L23.4019 18.6679L22.915 18.7816ZM19.0372 45.4476L19.5366 45.4218L19.5168 45.0403L19.1435 44.9591L19.0372 45.4476ZM48.7619 52.7761L49.1243 52.4316L48.7244 52.0109L48.3676 52.4687L48.7619 52.7761ZM72.7446 47.9167L72.8389 47.4257L72.4142 47.3441L72.2723 47.7526L72.7446 47.9167ZM74.3766 20.6181C75.3332 20.5001 76.3152 20.4388 77.3163 20.4388V19.4388C76.2743 19.4388 75.2515 19.5026 74.2542 19.6256L74.3766 20.6181ZM74.7449 16.0918C74.7449 17.4428 74.4324 18.7306 73.8652 19.9043L74.7656 20.3394C75.3955 19.0357 75.7449 17.5997 75.7449 16.0918H74.7449ZM63.4082 6.23469C69.7341 6.23469 74.7449 10.7085 74.7449 16.0918H75.7449C75.7449 10.035 70.1568 5.23469 63.4082 5.23469V6.23469ZM54.9035 9.57547C56.9748 7.53351 60.0111 6.23469 63.4082 6.23469V5.23469C59.7584 5.23469 56.4669 6.62999 54.2015 8.86334L54.9035 9.57547ZM39.4388 1.5C45.8977 1.5 51.4539 4.76487 54.1175 9.46588L54.9875 8.97292C52.1307 3.93081 46.2248 0.5 39.4388 0.5V1.5ZM23.0714 15.7959C23.0714 7.96004 30.3358 1.5 39.4388 1.5V0.5C29.9106 0.5 22.0714 7.28868 22.0714 15.7959H23.0714ZM23.4019 18.6679C23.1852 17.7404 23.0714 16.78 23.0714 15.7959H22.0714C22.0714 16.8574 22.1942 17.8942 22.4281 18.8954L23.4019 18.6679ZM6.5 32.3673C6.5 25.519 13.6331 19.7168 22.9384 19.2811L22.8916 18.2822C13.3168 18.7305 5.5 24.7554 5.5 32.3673H6.5ZM19.1435 44.9591C11.742 43.3486 6.5 38.2481 6.5 32.3673H5.5C5.5 38.8984 11.2723 44.2698 18.9309 45.9362L19.1435 44.9591ZM35.2959 58.5C26.7638 58.5 19.9102 52.6424 19.5366 45.4218L18.5379 45.4735C18.9448 53.3373 26.3512 59.5 35.2959 59.5V58.5ZM48.3676 52.4687C45.5396 56.0962 40.7505 58.5 35.2959 58.5V59.5C41.039 59.5 46.127 56.9693 49.1562 53.0835L48.3676 52.4687ZM59.2653 56.7245C55.2427 56.7245 51.6293 55.067 49.1243 52.4316L48.3995 53.1206C51.0903 55.9514 54.9644 57.7245 59.2653 57.7245V56.7245ZM72.2723 47.7526C70.4641 52.9553 65.3322 56.7245 59.2653 56.7245V57.7245C65.7484 57.7245 71.2658 53.6947 73.2169 48.0809L72.2723 47.7526ZM77.3163 47.8469C75.7705 47.8469 74.2705 47.7007 72.8389 47.4257L72.6503 48.4077C74.1443 48.6947 75.7075 48.8469 77.3163 48.8469V47.8469ZM95.4592 34.1429C95.4592 37.8759 93.4744 41.2909 90.1958 43.7889C86.9167 46.2873 82.3648 47.8469 77.3163 47.8469V48.8469C82.564 48.8469 87.3335 47.2269 90.8018 44.5844C94.2706 41.9415 96.4592 38.2545 96.4592 34.1429H95.4592ZM77.3163 20.4388C82.3648 20.4388 86.9167 21.9984 90.1958 24.4968C93.4744 26.9948 95.4592 30.4098 95.4592 34.1429H96.4592C96.4592 30.0312 94.2706 26.3442 90.8018 23.7013C87.3335 21.0588 82.564 19.4388 77.3163 19.4388V20.4388Z" fill="#02363D"/>
<path fill-rule="evenodd" clip-rule="evenodd" d="M72.3163 21.9388C71.2948 21.9388 70.2924 22.0014 69.3154 22.1218C69.9139 20.8831 70.2449 19.5213 70.2449 18.0918C70.2449 12.3717 64.9454 7.73469 58.4082 7.73469C54.8847 7.73469 51.7209 9.08175 49.5525 11.2194C46.7923 6.34784 41.0612 3 34.4388 3C25.1232 3 17.5714 9.62436 17.5714 17.7959C17.5714 18.8187 17.6897 19.8173 17.915 20.7816C8.47494 21.2237 1 27.1372 1 34.3673C1 40.5733 6.50719 45.8092 14.0372 47.4476C14.4275 54.9898 21.5575 61 30.2959 61C35.8947 61 40.8333 58.5327 43.7619 54.7761C46.3598 57.5092 50.1035 59.2245 54.2653 59.2245C60.5403 59.2245 65.8649 55.325 67.7446 49.9167C69.2074 50.1977 70.739 50.3469 72.3163 50.3469C82.6125 50.3469 90.9592 43.9876 90.9592 36.1429C90.9592 28.2982 82.6125 21.9388 72.3163 21.9388Z" fill="#36C5BA"/>
<path d="M69.3154 22.1218L68.8652 21.9043L68.4661 22.7303L69.3766 22.6181L69.3154 22.1218ZM49.5525 11.2194L49.1175 11.4659L49.439 12.0334L49.9035 11.5755L49.5525 11.2194ZM17.915 20.7816L17.9384 21.2811L18.5386 21.253L18.4019 20.6679L17.915 20.7816ZM14.0372 47.4476L14.5366 47.4218L14.5168 47.0403L14.1435 46.9591L14.0372 47.4476ZM43.7619 54.7761L44.1243 54.4316L43.7244 54.0109L43.3676 54.4687L43.7619 54.7761ZM67.7446 49.9167L67.8389 49.4257L67.4142 49.3441L67.2723 49.7526L67.7446 49.9167ZM69.3766 22.6181C70.3332 22.5001 71.3152 22.4388 72.3163 22.4388V21.4388C71.2743 21.4388 70.2515 21.5026 69.2542 21.6256L69.3766 22.6181ZM69.7449 18.0918C69.7449 19.4428 69.4324 20.7306 68.8652 21.9043L69.7656 22.3394C70.3955 21.0357 70.7449 19.5997 70.7449 18.0918H69.7449ZM58.4082 8.23469C64.7341 8.23469 69.7449 12.7085 69.7449 18.0918H70.7449C70.7449 12.035 65.1568 7.23469 58.4082 7.23469V8.23469ZM49.9035 11.5755C51.9748 9.53351 55.0111 8.23469 58.4082 8.23469V7.23469C54.7584 7.23469 51.4669 8.62999 49.2015 10.8633L49.9035 11.5755ZM34.4388 3.5C40.8977 3.5 46.4539 6.76487 49.1175 11.4659L49.9875 10.9729C47.1307 5.93081 41.2248 2.5 34.4388 2.5V3.5ZM18.0714 17.7959C18.0714 9.96004 25.3358 3.5 34.4388 3.5V2.5C24.9106 2.5 17.0714 9.28868 17.0714 17.7959H18.0714ZM18.4019 20.6679C18.1852 19.7404 18.0714 18.78 18.0714 17.7959H17.0714C17.0714 18.8574 17.1942 19.8942 17.4281 20.8954L18.4019 20.6679ZM1.5 34.3673C1.5 27.519 8.63307 21.7168 17.9384 21.2811L17.8916 20.2822C8.3168 20.7305 0.5 26.7554 0.5 34.3673H1.5ZM14.1435 46.9591C6.74204 45.3486 1.5 40.2481 1.5 34.3673H0.5C0.5 40.8984 6.27234 46.2698 13.9309 47.9362L14.1435 46.9591ZM30.2959 60.5C21.7638 60.5 14.9102 54.6424 14.5366 47.4218L13.5379 47.4735C13.9448 55.3373 21.3512 61.5 30.2959 61.5V60.5ZM43.3676 54.4687C40.5396 58.0962 35.7505 60.5 30.2959 60.5V61.5C36.039 61.5 41.127 58.9693 44.1562 55.0835L43.3676 54.4687ZM54.2653 58.7245C50.2427 58.7245 46.6293 57.067 44.1243 54.4316L43.3995 55.1206C46.0903 57.9514 49.9644 59.7245 54.2653 59.7245V58.7245ZM67.2723 49.7526C65.4641 54.9553 60.3322 58.7245 54.2653 58.7245V59.7245C60.7484 59.7245 66.2658 55.6947 68.2169 50.0809L67.2723 49.7526ZM72.3163 49.8469C70.7705 49.8469 69.2705 49.7007 67.8389 49.4257L67.6503 50.4077C69.1443 50.6947 70.7075 50.8469 72.3163 50.8469V49.8469ZM90.4592 36.1429C90.4592 39.8759 88.4744 43.2909 85.1958 45.7889C81.9167 48.2873 77.3648 49.8469 72.3163 49.8469V50.8469C77.564 50.8469 82.3335 49.2269 85.8018 46.5844C89.2706 43.9415 91.4592 40.2545 91.4592 36.1429H90.4592ZM72.3163 22.4388C77.3648 22.4388 81.9167 23.9984 85.1958 26.4968C88.4744 28.9948 90.4592 32.4098 90.4592 36.1429H91.4592C91.4592 32.0312 89.2706 28.3442 85.8018 25.7013C82.3335 23.0588 77.564 21.4388 72.3163 21.4388V22.4388Z" fill="#02363D"/>
<path fill-rule="evenodd" clip-rule="evenodd" d="M57.7278 7.75152C55.5017 7.8619 53.4402 8.51052 51.7106 9.55098C51.9615 9.90769 52.1944 10.2752 52.4082 10.6525C53.8037 9.27675 55.6421 8.25272 57.7278 7.75152ZM36.4229 3.10128C35.7721 3.03439 35.11 3 34.4388 3C25.1232 3 17.5714 9.62436 17.5714 17.7959C17.5714 18.6892 17.6617 19.564 17.8346 20.4137C19.4349 19.9366 21.1555 19.6395 22.9527 19.5553C22.7429 18.6575 22.6328 17.7278 22.6328 16.7755C22.6328 9.73585 28.6525 3.9295 36.4229 3.10128ZM16.402 20.9006C7.68852 21.867 1 27.5281 1 34.3673C1 40.5733 6.50719 45.8092 14.0372 47.4476C14.4275 54.9898 21.5575 61 30.2959 61C35.8947 61 40.8333 58.5327 43.7619 54.7761C46.3598 57.5092 50.1035 59.2245 54.2653 59.2245C60.5403 59.2245 65.8649 55.325 67.7446 49.9167C69.2074 50.1977 70.739 50.3469 72.3163 50.3469C82.6125 50.3469 90.9592 43.9876 90.9592 36.1429C90.9592 35.7513 90.9384 35.3635 90.8976 34.98C90.1496 41.7581 82.6918 47.0816 73.6022 47.0816C72.1336 47.0816 70.7076 46.9426 69.3457 46.681C67.5957 51.7164 62.6383 55.3469 56.796 55.3469C52.9212 55.3469 49.4357 53.75 47.017 51.2053C44.2903 54.7029 39.6924 57 34.4797 57C26.344 57 19.7057 51.4043 19.3423 44.3823C12.3315 42.8569 7.2041 37.9821 7.2041 32.2041C7.2041 27.2698 10.9436 22.9941 16.402 20.9006Z" fill="#6FD6CE"/>
<path d="M69.3154 22.1218L68.8652 21.9043L68.4661 22.7303L69.3766 22.6181L69.3154 22.1218ZM49.5525 11.2194L49.1175 11.4659L49.439 12.0334L49.9035 11.5755L49.5525 11.2194ZM17.915 20.7816L17.9384 21.2811L18.5386 21.253L18.4019 20.6679L17.915 20.7816ZM14.0372 47.4476L14.5366 47.4218L14.5168 47.0403L14.1435 46.9591L14.0372 47.4476ZM43.7619 54.7761L44.1243 54.4316L43.7244 54.0109L43.3676 54.4687L43.7619 54.7761ZM67.7446 49.9167L67.8389 49.4257L67.4142 49.3441L67.2723 49.7526L67.7446 49.9167ZM69.3766 22.6181C70.3332 22.5001 71.3152 22.4388 72.3163 22.4388V21.4388C71.2743 21.4388 70.2515 21.5026 69.2542 21.6256L69.3766 22.6181ZM69.7449 18.0918C69.7449 19.4428 69.4324 20.7306 68.8652 21.9043L69.7656 22.3394C70.3955 21.0357 70.7449 19.5997 70.7449 18.0918H69.7449ZM58.4082 8.23469C64.7341 8.23469 69.7449 12.7085 69.7449 18.0918H70.7449C70.7449 12.035 65.1568 7.23469 58.4082 7.23469V8.23469ZM49.9035 11.5755C51.9748 9.53351 55.0111 8.23469 58.4082 8.23469V7.23469C54.7584 7.23469 51.4669 8.62999 49.2015 10.8633L49.9035 11.5755ZM34.4388 3.5C40.8977 3.5 46.4539 6.76487 49.1175 11.4659L49.9875 10.9729C47.1307 5.93081 41.2248 2.5 34.4388 2.5V3.5ZM18.0714 17.7959C18.0714 9.96004 25.3358 3.5 34.4388 3.5V2.5C24.9106 2.5 17.0714 9.28868 17.0714 17.7959H18.0714ZM18.4019 20.6679C18.1852 19.7404 18.0714 18.78 18.0714 17.7959H17.0714C17.0714 18.8574 17.1942 19.8942 17.4281 20.8954L18.4019 20.6679ZM1.5 34.3673C1.5 27.519 8.63307 21.7168 17.9384 21.2811L17.8916 20.2822C8.3168 20.7305 0.5 26.7554 0.5 34.3673H1.5ZM14.1435 46.9591C6.74204 45.3486 1.5 40.2481 1.5 34.3673H0.5C0.5 40.8984 6.27234 46.2698 13.9309 47.9362L14.1435 46.9591ZM30.2959 60.5C21.7638 60.5 14.9102 54.6424 14.5366 47.4218L13.5379 47.4735C13.9448 55.3373 21.3512 61.5 30.2959 61.5V60.5ZM43.3676 54.4687C40.5396 58.0962 35.7505 60.5 30.2959 60.5V61.5C36.039 61.5 41.127 58.9693 44.1562 55.0835L43.3676 54.4687ZM54.2653 58.7245C50.2427 58.7245 46.6293 57.067 44.1243 54.4316L43.3995 55.1206C46.0903 57.9514 49.9644 59.7245 54.2653 59.7245V58.7245ZM67.2723 49.7526C65.4641 54.9553 60.3322 58.7245 54.2653 58.7245V59.7245C60.7484 59.7245 66.2658 55.6947 68.2169 50.0809L67.2723 49.7526ZM72.3163 49.8469C70.7705 49.8469 69.2705 49.7007 67.8389 49.4257L67.6503 50.4077C69.1443 50.6947 70.7075 50.8469 72.3163 50.8469V49.8469ZM90.4592 36.1429C90.4592 39.8759 88.4744 43.2909 85.1958 45.7889C81.9167 48.2873 77.3648 49.8469 72.3163 49.8469V50.8469C77.564 50.8469 82.3335 49.2269 85.8018 46.5844C89.2706 43.9415 91.4592 40.2545 91.4592 36.1429H90.4592ZM72.3163 22.4388C77.3648 22.4388 81.9167 23.9984 85.1958 26.4968C88.4744 28.9948 90.4592 32.4098 90.4592 36.1429H91.4592C91.4592 32.0312 89.2706 28.3442 85.8018 25.7013C82.3335 23.0588 77.564 21.4388 72.3163 21.4388V22.4388Z" fill="#02363D"/>
<path d="M43.9308 12.7329C45.7655 11.6423 50.513 10.4189 54.8256 14.2505" stroke="#02363D" stroke-linecap="round" stroke-linejoin="round"/>
<path d="M39 52.2066C40.6914 53.5084 45.259 55.2896 49.9981 52.0001" stroke="#02363D" stroke-linecap="round" stroke-linejoin="round"/>
<mask id="path-13-outside-1_13082_17984" maskUnits="userSpaceOnUse" x="31" y="29" width="30" height="8" fill="black">
<rect fill="white" x="31" y="29" width="30" height="8"/>
<path fill-rule="evenodd" clip-rule="evenodd" d="M38 33C38 34.6569 36.6569 36 35 36C33.3431 36 32 34.6569 32 33C32 31.3431 33.3431 30 35 30C36.6569 30 38 31.3431 38 33ZM49 33C49 34.6569 47.6569 36 46 36C44.3431 36 43 34.6569 43 33C43 31.3431 44.3431 30 46 30C47.6569 30 49 31.3431 49 33ZM57 36C58.6569 36 60 34.6569 60 33C60 31.3431 58.6569 30 57 30C55.3431 30 54 31.3431 54 33C54 34.6569 55.3431 36 57 36Z"/>
</mask>
<path fill-rule="evenodd" clip-rule="evenodd" d="M38 33C38 34.6569 36.6569 36 35 36C33.3431 36 32 34.6569 32 33C32 31.3431 33.3431 30 35 30C36.6569 30 38 31.3431 38 33ZM49 33C49 34.6569 47.6569 36 46 36C44.3431 36 43 34.6569 43 33C43 31.3431 44.3431 30 46 30C47.6569 30 49 31.3431 49 33ZM57 36C58.6569 36 60 34.6569 60 33C60 31.3431 58.6569 30 57 30C55.3431 30 54 31.3431 54 33C54 34.6569 55.3431 36 57 36Z" fill="white"/>
<path d="M35 37C37.2091 37 39 35.2091 39 33H37C37 34.1046 36.1046 35 35 35V37ZM31 33C31 35.2091 32.7909 37 35 37V35C33.8954 35 33 34.1046 33 33H31ZM35 29C32.7909 29 31 30.7909 31 33H33C33 31.8954 33.8954 31 35 31V29ZM39 33C39 30.7909 37.2091 29 35 29V31C36.1046 31 37 31.8954 37 33H39ZM46 37C48.2091 37 50 35.2091 50 33H48C48 34.1046 47.1046 35 46 35V37ZM42 33C42 35.2091 43.7909 37 46 37V35C44.8954 35 44 34.1046 44 33H42ZM46 29C43.7909 29 42 30.7909 42 33H44C44 31.8954 44.8954 31 46 31V29ZM50 33C50 30.7909 48.2091 29 46 29V31C47.1046 31 48 31.8954 48 33H50ZM59 33C59 34.1046 58.1046 35 57 35V37C59.2091 37 61 35.2091 61 33H59ZM57 31C58.1046 31 59 31.8954 59 33H61C61 30.7909 59.2091 29 57 29V31ZM55 33C55 31.8954 55.8954 31 57 31V29C54.7909 29 53 30.7909 53 33H55ZM57 35C55.8954 35 55 34.1046 55 33H53C53 35.2091 54.7909 37 57 37V35Z" fill="#02363D" mask="url(#path-13-outside-1_13082_17984)"/>
<path fill-rule="evenodd" clip-rule="evenodd" d="M36.562 35.562C37.4244 35.035 38.0001 34.0848 38.0001 33.0001C38.0001 31.3433 36.657 30.0001 35.0001 30.0001C33.9154 30.0001 32.9652 30.5758 32.4382 31.4383C32.8932 31.1603 33.4279 31.0001 34.0001 31.0001C35.657 31.0001 37.0001 32.3433 37.0001 34.0001C37.0001 34.5723 36.8399 35.107 36.562 35.562ZM47.562 35.562C48.4244 35.035 49.0001 34.0848 49.0001 33.0001C49.0001 31.3433 47.657 30.0001 46.0001 30.0001C44.9154 30.0001 43.9652 30.5758 43.4382 31.4383C43.8932 31.1603 44.4279 31.0001 45.0001 31.0001C46.657 31.0001 48.0001 32.3433 48.0001 34.0001C48.0001 34.5723 47.8399 35.107 47.562 35.562ZM54.4382 31.4383C54.8932 31.1603 55.4279 31.0001 56.0001 31.0001C57.657 31.0001 59.0001 32.3433 59.0001 34.0001C59.0001 34.5723 58.8399 35.107 58.562 35.562C59.4244 35.0351 60.0001 34.0848 60.0001 33.0001C60.0001 31.3433 58.657 30.0001 57.0001 30.0001C55.9154 30.0001 54.9652 30.5758 54.4382 31.4383Z" fill="#6FD6CE"/>
<path fill-rule="evenodd" clip-rule="evenodd" d="M82.839 54.0387C82.8357 53.7917 82.8669 53.5451 82.9357 53.3025C83.4525 51.4786 85.8924 50.5727 88.3853 51.2791C90.3335 51.8311 91.7375 53.2045 92.0115 54.6488C93.2549 55.1148 94.1774 56.2718 94.2763 57.6831C94.4114 59.6113 92.9577 61.284 91.0295 61.4191C89.9086 61.4977 88.8741 61.0394 88.1777 60.2631C87.7251 60.5637 87.2099 60.8027 86.6457 60.9596C84.159 61.6511 81.6634 60.4862 81.0716 58.3579C80.6272 56.7598 81.3824 55.0728 82.839 54.0387Z" fill="#218C88"/>
<path d="M82.839 54.0387L83.1285 54.4464L83.3425 54.2944L83.339 54.0319L82.839 54.0387ZM82.9357 53.3025L83.4167 53.4388L82.9357 53.3025ZM88.3853 51.2791L88.249 51.7601L88.249 51.7601L88.3853 51.2791ZM92.0115 54.6488L91.5202 54.742L91.5726 55.0183L91.836 55.117L92.0115 54.6488ZM88.1777 60.2631L88.5499 59.9292L88.2612 59.6074L87.9011 59.8466L88.1777 60.2631ZM86.6457 60.9596L86.7796 61.4413L86.7796 61.4413L86.6457 60.9596ZM81.0716 58.3579L80.5898 58.4918L80.5898 58.4918L81.0716 58.3579ZM83.339 54.0319C83.3363 53.8321 83.3615 53.6337 83.4167 53.4388L82.4546 53.1662C82.3724 53.4565 82.3351 53.7514 82.3391 54.0455L83.339 54.0319ZM83.4167 53.4388C83.6212 52.7174 84.2165 52.1363 85.0935 51.8106C85.9701 51.4852 87.0938 51.4328 88.249 51.7601L88.5216 50.798C87.1839 50.4189 85.8412 50.4663 84.7454 50.8732C83.6501 51.2799 82.767 52.0637 82.4546 53.1662L83.4167 53.4388ZM88.249 51.7601C90.0738 52.2772 91.2917 53.537 91.5202 54.742L92.5027 54.5556C92.1834 52.8719 90.5932 51.385 88.5216 50.798L88.249 51.7601ZM91.836 55.117C92.903 55.5169 93.6928 56.5091 93.7775 57.718L94.775 57.6481C94.662 56.0345 93.6069 54.7128 92.1869 54.1806L91.836 55.117ZM93.7775 57.718C93.8933 59.3708 92.6473 60.8046 90.9945 60.9204L91.0644 61.9179C93.2682 61.7635 94.9295 59.8518 94.775 57.6481L93.7775 57.718ZM90.9945 60.9204C90.034 60.9877 89.1477 60.5956 88.5499 59.9292L87.8055 60.597C88.6005 61.4832 89.7832 62.0077 91.0644 61.9179L90.9945 60.9204ZM87.9011 59.8466C87.4924 60.118 87.0253 60.335 86.5117 60.4779L86.7796 61.4413C87.3944 61.2703 87.9579 61.0094 88.4544 60.6796L87.9011 59.8466ZM86.5117 60.4779C84.2181 61.1157 82.0524 60.0187 81.5533 58.2239L80.5898 58.4918C81.2745 60.9538 84.1 62.1865 86.7796 61.4413L86.5117 60.4779ZM81.5533 58.2239C81.1772 56.8714 81.8047 55.3862 83.1285 54.4464L82.5496 53.631C80.9602 54.7594 80.0771 56.6481 80.5898 58.4918L81.5533 58.2239Z" fill="#02363D"/>
<path fill-rule="evenodd" clip-rule="evenodd" d="M80.839 55.0387C80.8357 54.7917 80.8669 54.5451 80.9357 54.3025C81.4525 52.4786 83.8924 51.5727 86.3853 52.2791C88.3335 52.8311 89.7375 54.2045 90.0115 55.6488C91.2549 56.1148 92.1774 57.2718 92.2763 58.6831C92.4114 60.6113 90.9577 62.284 89.0295 62.4191C87.9086 62.4977 86.8741 62.0394 86.1777 61.2631C85.7251 61.5637 85.2099 61.8027 84.6457 61.9596C82.159 62.6511 79.6634 61.4862 79.0716 59.3579C78.6272 57.7598 79.3824 56.0728 80.839 55.0387Z" fill="#36C5BA"/>
<path d="M80.839 55.0387L81.1285 55.4464L81.3425 55.2944L81.339 55.0319L80.839 55.0387ZM80.9357 54.3025L81.4167 54.4388L80.9357 54.3025ZM86.3853 52.2791L86.249 52.7601L86.249 52.7601L86.3853 52.2791ZM90.0115 55.6488L89.5202 55.742L89.5726 56.0183L89.836 56.117L90.0115 55.6488ZM86.1777 61.2631L86.5499 60.9292L86.2612 60.6074L85.9011 60.8466L86.1777 61.2631ZM84.6457 61.9596L84.7796 62.4413L84.7796 62.4413L84.6457 61.9596ZM79.0716 59.3579L78.5898 59.4918L78.5898 59.4918L79.0716 59.3579ZM81.339 55.0319C81.3363 54.8321 81.3615 54.6337 81.4167 54.4388L80.4546 54.1662C80.3724 54.4565 80.3351 54.7514 80.3391 55.0455L81.339 55.0319ZM81.4167 54.4388C81.6212 53.7174 82.2165 53.1363 83.0935 52.8106C83.9701 52.4852 85.0938 52.4328 86.249 52.7601L86.5216 51.798C85.1839 51.4189 83.8412 51.4663 82.7454 51.8732C81.6501 52.2799 80.767 53.0637 80.4546 54.1662L81.4167 54.4388ZM86.249 52.7601C88.0738 53.2772 89.2917 54.537 89.5202 55.742L90.5027 55.5556C90.1834 53.8719 88.5932 52.385 86.5216 51.798L86.249 52.7601ZM89.836 56.117C90.903 56.5169 91.6928 57.5091 91.7775 58.718L92.775 58.6481C92.662 57.0345 91.6069 55.7128 90.1869 55.1806L89.836 56.117ZM91.7775 58.718C91.8933 60.3708 90.6473 61.8046 88.9945 61.9204L89.0644 62.9179C91.2682 62.7635 92.9295 60.8518 92.775 58.6481L91.7775 58.718ZM88.9945 61.9204C88.034 61.9877 87.1477 61.5956 86.5499 60.9292L85.8055 61.597C86.6005 62.4832 87.7832 63.0077 89.0644 62.9179L88.9945 61.9204ZM85.9011 60.8466C85.4924 61.118 85.0253 61.335 84.5117 61.4779L84.7796 62.4413C85.3944 62.2703 85.9579 62.0094 86.4544 61.6796L85.9011 60.8466ZM84.5117 61.4779C82.2181 62.1157 80.0524 61.0187 79.5533 59.2239L78.5898 59.4918C79.2745 61.9538 82.1 63.1865 84.7796 62.4413L84.5117 61.4779ZM79.5533 59.2239C79.1772 57.8714 79.8047 56.3862 81.1285 55.4464L80.5496 54.631C78.9602 55.7594 78.0771 57.6481 78.5898 59.4918L79.5533 59.2239Z" fill="#02363D"/>
<ellipse cx="102.5" cy="65" rx="4.5" ry="5" fill="#218C88" stroke="#02363D"/>
<ellipse cx="100.5" cy="66" rx="4.5" ry="5" fill="#36C5BA" stroke="#02363D"/>
</g>
<defs>
<clipPath id="clip0_13082_17984">
<rect width="108" height="72" fill="white"/>
</clipPath>
</defs>
</svg>
