<svg xmlns="http://www.w3.org/2000/svg" xml:space="preserve" id="Layer_1" x="0" y="0" version="1.1" viewBox="0 0 384.995 415.699"><style>.st0{fill:#011214}.st2{fill:#e2f7f5}.st3{fill:#0d5256}.st4{fill:#218c88}</style><path d="M297.71 329 252 355.4l45.71 26.39 45.71-26.39-45.71-26.4z" class="st0"/><path d="m348.898 373.983-1.786.095-18.001-10.363 4.493-2.84 16.692 9.855-1.398 3.253zM284.195 383.831c-12.696-7.326-33.194-7.37-45.794-.095-12.6 7.276-12.524 19.113.165 26.439 12.696 7.327 33.194 7.371 45.794.096 12.6-7.276 12.524-19.113-.165-26.44zm-19.552 24.089c-9.124 0-16.52-4.124-16.52-9.214 0-5.089 7.396-9.213 16.52-9.213 9.125 0 16.521 4.124 16.521 9.213 0 5.09-7.396 9.214-16.521 9.214zM375.966 358.352l-1.779.095-18.001-10.363 4.492-2.841 16.692 9.856-1.404 3.253z" class="st0"/><path fill="#176f6f" d="m384.925 345.555.064-.038-17.919-10.345-8.959-5.172-9.023 5.21-4.511 2.605-9.023 5.211-4.511 2.605-9.023 5.21-42.464 24.514c-11.285-4.136-26.471-3.336-36.383 2.383-5.751 3.323-8.629 7.663-8.642 12.003V397.366c-.044 4.333 2.783 8.66 8.489 11.952 11.38 6.57 29.902 6.532 41.365-.089 5.89-3.4 8.769-7.873 8.635-12.314V389.29a10.22 10.22 0 0 0-.66-3.362l38.626-22.302 17.918 10.344 9.023-5.21-.064-.038.064-.039-.064-.038.064-.038-.064-.038.064-.038-.064-.038.064-.038-.064-.038.064-.039-.064-.038.064-.038-.064-.038.064-.038-.064-.038.064-.038-.064-.038.064-.039-.064-.038.064-.038-.064-.038.064-.038-.064-.038.064-.038-.064-.038.064-.039-.064-.038.064-.038-.064-.038.064-.038-.064-.038.064-.038-.064-.038.064-.039-.064-.038.064-.038-.064-.038.064-.038-.064-.038.064-.038-.064-.038.064-.039-.064-.038.064-.038-.064-.038.064-.038-.064-.038.064-.038-.064-.038.064-.038-.064-.039.064-.038-.064-.038.064-.038-.064-.038.064-.038-.064-.038.064-.038-.064-.039.064-.038-.064-.038.064-.038-.064-.038.064-.038-.064-.038.064-.038-.064-.039.064-.038-.064-.038.064-.038-.064-.038.064-.038-.064-.038.064-.038-.064-.039.064-.038-.064-.038.064-.038-.064-.038.064-.038-.064-.038.064-.038-.064-.039.064-.038-.064-.038.064-.038-.064-.038.064-.038-.064-.038.064-.038-.064-.039.064-.038-.064-.038.064-.038-.064-.038.064-.038-.064-.038.064-.038-.064-.039.064-.038-.064-.038.064-.038-.064-.038.064-.038-.064-.038.064-.038-.064-.039.064-.038-.064-.038.064-.038-.064-.038.064-.038-.064-.038.064-.038-.064-.039.064-.038-.064-.038.064-.038-.064-.038.064-.038-.064-.038.064-.038-.064-.039.064-.038-.064-.038.064-.038-.064-.038.064-.038-.064-.038.064-.038-.064-.039.064-.038-.064-.038.064-.038-.064-.038.064-.038-.064-.038.064-.038-.064-.039.064-.038-.064-.038.064-.038-.064-.038.064-.038-.064-.038.064-.038-.064-.039.064-.038-.064-.038.064-.038-.064-.038.064-.038-.064-.038.064-.038-.064-.039.064-.038-.064-.038.064-.038-.064-.038.064-.038-.064-.038.064-.038-.064-.039.064-.038-.064-.038.064-.038-.064-.038.064-.038-.064-.038.064-.038-.064-.039.064-.038-.064-.038.064-.038-.064-.038.064-.038-.064-.038.064-.038-.064-.039.064-.038-.064-.038.064-.038-.064-.038.064-.038-.064-.038.064-.038-.064-.039.064-.038-.064-.038.064-.038-.064-.038.064-.038-.064-.038.064-.038-.064-.039.064-.038-.064-.038.064-.038-.064-.038.064-.038-.064-.038.064-.038-2.357-1.36 6.932-4.003-.064-.038.064-.038-.064-.039.064-.038-.064-.038.064-.038-.064-.038.064-.038-.064-.038.064-.038-.064-.039.064-.038-.064-.038.064-.038-.064-.038.064-.038-.064-.038.064-.038-.064-.039.064-.038-.064-.038.064-.038-.064-.038.064-.038-.064-.038.064-.038-.064-.039.064-.038-.064-.038.064-.038-.064-.038.064-.038-.064-.038.064-.038-.064-.039.064-.038-.064-.038.064-.038-.064-.038.064-.038-.064-.038.064-.038-.064-.039.064-.038-.064-.038.064-.038-.064-.038.064-.038-.064-.038.064-.038-.064-.039.064-.038-.064-.038.064-.038-.064-.038.064-.038-.064-.038.064-.038-.064-.039.064-.038-.064-.038.064-.038-.064-.038.064-.038-.064-.038.064-.038-.064-.039.064-.038-.064-.038.064-.038-.064-.038.064-.038-.064-.038.064-.038-.064-.039.064-.038-.064-.038.064-.038-.064-.038.064-.038-.064-.038.064-.038-.064-.039.064-.038-.064-.038.064-.038-.064-.038.064-.038-.064-.038.064-.038-.064-.039.064-.038-.064-.038.064-.038-.064-.038.064-.038-.064-.038.064-.038-.064-.039.064-.038-.064-.038.064-.038-.064-.038.064-.038-.064-.038.064-.038-.064-.039.064-.038-.064-.038.064-.038-.064-.038.064-.038-.064-.038.064-.038-.064-.039.064-.038-.064-.038.064-.038-.064-.038.064-.038-.064-.038.064-.038-.064-.039.064-.038-.064-.038.064-.038-.064-.038.064-.038-.064-.038.064-.038-.064-.038.064-.039-.064-.038.064-.038-.064-.038.064-.038-.064-.038.064-.038-.064-.038 13.534 7.815 9.023-5.21-.063-.038.063-.039-.063-.038.063-.038-.063-.038.063-.038-.063-.038.063-.038-.063-.038.063-.039-.063-.038.063-.038-.063-.038.063-.038-.063-.038.063-.038-.063-.038.063-.039-.063-.038.063-.038-.063-.038.063-.038-.063-.038.063-.038-.063-.038.063-.039-.063-.038.063-.038-.063-.038.063-.038-.063-.038.063-.038-.063-.038.063-.039-.063-.038.063-.038-.063-.038.063-.038-.063-.038.063-.038-.063-.038.063-.039-.063-.038.063-.038-.063-.038.063-.038-.063-.038.063-.038-.063-.038.063-.039-.063-.038.063-.038-.063-.038.063-.038-.063-.038.063-.038-.063-.038.063-.039-.063-.038.063-.038-.063-.038.063-.038-.063-.038.063-.038-.063-.038.063-.039-.063-.038.063-.038-.063-.038.063-.038-.063-.038.063-.038-.063-.038.063-.039-.063-.038.063-.038-.063-.038.063-.038-.063-.038.063-.038-.063-.038.063-.039-.063-.038.063-.038-.063-.038.063-.038-.063-.038.063-.038-.063-.038.063-.039-.063-.038.063-.038-.063-.038.063-.038-.063-.038.063-.038-.063-.038.063-.039-.063-.038.063-.038-.063-.038.063-.038-.063-.038.063-.038-.063-.038.063-.039-.063-.038.063-.038-.063-.038.063-.038-.063-.038.063-.038-.063-.038.063-.039-.063-.038.063-.038-.063-.038.063-.038-.063-.038.063-.038-.063-.038.063-.038-.063-.039.063-.038-.063-.038.063-.038-.063-.038.063-.038-.063-.038.063-.038-.063-.039.063-.038-.063-.038.063-.038-.063-.038.063-.038-.063-.038.063-.038-.063-.039.063-.038-.063-.038.063-.038-.063-.038.063-.038-.063-.038.063-.038-.063-.039.063-.038-.063-.038.063-.038-.063-.038.063-.038-.063-.038.063-.038-.063-.039.063-.038-.063-.038.063-.038-.063-.038.063-.038-.063-.038.063-.038-.063-.039.063-.038-.063-.038.063-.038-.063-.038.063-.038-.063-.038.063-.038-.063-.039.063-.038-.063-.038.063-.038-.063-.038.063-.038-.063-.038.063-.038-.063-.039.063-.038-.063-.038.063-.038-.063-.038.063-.038-.063-.038.063-.038-.063-.039.063-.038-.063-.038.063-.038-.063-.038.063-.038-.063-.038.063-.038-.063-.039.063-.038-.063-.038.063-.038-.063-.038.063-.038-.063-.038-.007.216zm-109.499 50.807c-6.481 3.742-16.946 3.761-23.377.051-1.486-.858-2.624-1.843-3.424-2.898.813-1.08 1.976-2.09 3.507-2.974 6.481-3.742 16.946-3.761 23.377-.05 1.486.857 2.624 1.842 3.424 2.897-.813 1.08-1.976 2.091-3.507 2.974z"/><path d="M275.509 382.866c6.43 3.71 6.392 9.76-.083 13.496s-16.946 3.761-23.377.051c-6.43-3.711-6.392-9.76.083-13.496 6.481-3.743 16.946-3.762 23.377-.051zm109.486-37.349-17.918-10.345-8.959-5.172-9.023 5.21-4.512 2.605-9.022 5.211-4.512 2.605-9.022 5.21-42.465 24.514c-11.284-4.136-26.471-3.336-36.383 2.383-11.463 6.621-11.532 17.308-.152 23.879 11.38 6.57 29.902 6.531 41.365-.089 9.912-5.725 11.297-14.494 4.13-21.007l42.464-24.514 17.918 10.345 9.023-5.211-17.918-10.344 4.511-2.605 8.959 5.172 9.023-5.21-8.959-5.173 4.511-2.605 17.918 10.345 9.023-5.211v.007z" class="st2"/><path d="m172.34 369.54 3.86-.21 155.57-89.74.57-2.44-59.23 16.22-64.53 38.6-36.24 37.57z" class="st0"/><path d="m172.34 369.54-12.34.64L0 277.8l45.69-26.37 126.65 118.11z" class="st0"/><path d="M126.62 158.37v52.79l45.72 26.4v-52.79l-45.72-26.4zM172.34 184.77l45.71-26.4v52.79l-45.71 26.4v-52.79z" class="st2"/><path d="m172.34 131.98-45.72 26.39 45.72 26.4 45.71-26.4-45.71-26.39z" class="st2"/><path d="M183.77 191.37v52.79l45.71 26.39v-52.79l-45.71-26.39z" class="st3"/><path d="m229.48 217.76 45.71-26.39v52.79l-45.71 26.39v-52.79z" class="st4"/><path d="m229.48 164.97-45.71 26.4 45.71 26.39 45.71-26.39-45.71-26.4z" class="st2"/><path d="M240.91 224.36v52.79l45.71 26.4v-52.79l-45.71-26.4z" class="st3"/><path d="m286.62 250.76 45.72-26.4v52.79l-45.72 26.4v-52.79z" class="st4"/><path d="m286.62 197.97-45.71 26.39 45.71 26.4 45.72-26.4-45.72-26.39zM126.62 92.38v52.79l45.72 26.4v-52.79l-45.72-26.4zM172.34 118.78l45.71-26.4v52.79l-45.71 26.4v-52.79z" class="st2"/><path d="m172.34 65.99-45.72 26.39 45.72 26.4 45.71-26.4-45.71-26.39zM183.77 125.38v52.79l45.71 26.39v-52.79l-45.71-26.39z" class="st2"/><path d="m229.48 151.77 45.71-26.39v52.79l-45.71 26.39v-52.79zM229.48 98.98l-45.71 26.4 45.71 26.39 45.71-26.39-45.71-26.4z" class="st2"/><path d="M240.91 158.37v52.79l45.71 26.4v-52.79l-45.71-26.4z" class="st3"/><path d="m286.62 184.77 45.72-26.4v52.79l-45.72 26.4v-52.79z" class="st4"/><path d="m286.62 131.98-45.71 26.39 45.71 26.4 45.72-26.4-45.72-26.39z" class="st2"/><path d="M126.62 26.4v52.79l45.72 26.39V52.79L126.62 26.4z" class="st3"/><path d="m172.34 52.79 45.71-26.39v52.79l-45.71 26.39V52.79z" class="st4"/><path d="m172.34 0-45.72 26.4 45.72 26.39 45.71-26.39L172.34 0z" class="st2"/><path d="M183.77 59.39v52.79l45.71 26.4V85.79l-45.71-26.4z" class="st3"/><path d="m229.48 85.79 45.71-26.4v52.79l-45.71 26.4V85.79z" class="st4"/><path d="m229.48 32.99-45.71 26.4 45.71 26.4 45.71-26.4-45.71-26.4z" class="st2"/><path d="M240.91 92.38v52.79l45.71 26.4v-52.79l-45.71-26.4z" class="st3"/><path d="m286.62 118.78 45.72-26.4v52.79l-45.72 26.4v-52.79z" class="st4"/><path d="m286.62 65.99-45.71 26.39 45.71 26.4 45.72-26.4-45.72-26.39zM69.48 191.37v52.79l45.71 26.39v-52.79l-45.71-26.39zM115.19 217.76l45.72-26.39v52.79l-45.72 26.39v-52.79z" class="st2"/><path d="m115.19 164.97-45.71 26.4 45.71 26.39 45.72-26.39-45.72-26.4zM126.62 224.36v52.79l45.72 26.4v-52.79l-45.72-26.4zM172.34 250.76l45.71-26.4v52.79l-45.71 26.4v-52.79z" class="st2"/><path d="m172.34 197.97-45.72 26.39 45.72 26.4 45.71-26.4-45.71-26.39z" class="st2"/><path d="M183.77 257.36v52.79l45.71 26.39v-52.79l-45.71-26.39z" class="st3"/><path d="m229.48 283.75 45.71-26.39v52.79l-45.71 26.39v-52.79z" class="st4"/><path d="m229.48 230.96-45.71 26.4 45.71 26.39 45.71-26.39-45.71-26.4zM69.48 125.38v52.79l45.71 26.39v-52.79l-45.71-26.39zM115.19 151.77l45.72-26.39v52.79l-45.72 26.39v-52.79zM115.19 98.98l-45.71 26.4 45.71 26.39 45.72-26.39-45.72-26.4z" class="st2"/><path d="M126.62 158.37v52.79l45.72 26.4v-52.79l-45.72-26.4zM172.34 184.77l45.71-26.4v52.79l-45.71 26.4v-52.79z" class="st2"/><path d="m172.34 131.98-45.72 26.39 45.72 26.4 45.71-26.4-45.71-26.39z" class="st2"/><path d="M252 227.4v52.79l45.71 26.39v-52.79L252 227.4z" class="st3"/><path d="m297.71 253.79 45.71-26.39v52.79l-45.71 26.39v-52.79z" class="st4"/><path d="M328.92 255.57c0-4.09-2.89-5.74-6.46-3.68s-6.46 7.05-6.46 11.14c0 2.7 1.26 4.33 3.15 4.53L316 284.53l12.92-7.46-3.15-13.34c1.88-2.38 3.15-5.47 3.15-8.17v.01z" class="st0"/><path d="M297.71 201 252 227.4l45.71 26.39 45.71-26.39-45.71-26.4z" class="st2"/><path d="M69.48 59.39v52.79l45.71 26.4V85.79l-45.71-26.4z" class="st3"/><path d="m115.19 85.79 45.72-26.4v52.79l-45.72 26.4V85.79z" class="st4"/><path d="m115.19 32.99-45.71 26.4 45.71 26.4 45.72-26.4-45.72-26.4z" class="st2"/><path d="M126.62 92.38v52.79l45.72 26.4v-52.79l-45.72-26.4z" class="st3"/><path d="m172.34 118.78 45.71-26.4v52.79l-45.71 26.4v-52.79z" class="st4"/><path d="m172.34 65.99-45.72 26.39 45.72 26.4 45.71-26.4-45.71-26.39z" class="st2"/><path d="M183.77 125.38v52.79l45.71 26.39v-52.79l-45.71-26.39z" class="st3"/><path d="m229.48 151.77 45.71-26.39v52.79l-45.71 26.39v-52.79z" class="st4"/><path d="m229.48 98.98-45.71 26.4 45.71 26.39 45.71-26.39-45.71-26.4z" class="st2"/><path d="M12.34 224.36v52.79l45.71 26.4v-52.79l-45.71-26.4z" class="st3"/><path d="m58.05 250.76 45.72-26.4v52.79l-45.72 26.4v-52.79z" class="st4"/><path d="m58.05 197.97-45.71 26.39 45.71 26.4 45.72-26.4-45.72-26.39z" class="st2"/><path d="m69.48 257.36-10.55 45.68 15.2-8.78-4.65-36.9z" class="st0"/><path d="M69.48 257.36v52.79l45.71 26.39v-52.79l-45.71-26.39z" class="st3"/><path d="m115.19 283.75 45.72-26.39v52.79l-45.72 26.39v-52.79z" class="st4"/><path d="m115.19 230.96-45.71 26.4 45.71 26.39 45.72-26.39-45.72-26.4z" class="st2"/><path d="m126.62 290.35-10.54 45.68 12.21-7.05-1.67-38.63z" class="st0"/><path d="M126.62 290.35v52.79l45.72 26.4v-52.79l-45.72-26.4z" class="st3"/><path d="m172.34 316.75 45.71-26.4v52.79l-45.71 26.4v-52.79z" class="st4"/><path d="m172.34 263.95-45.72 26.4 45.72 26.4 45.71-26.4-45.71-26.4z" class="st2"/><path d="M12.34 158.37v52.79l45.71 26.4v-52.79l-45.71-26.4z" class="st3"/><path d="m58.05 184.77 45.72-26.4v52.79l-45.72 26.4v-52.79z" class="st4"/><path d="m58.05 131.98-45.71 26.39 45.71 26.4 45.72-26.4-45.72-26.39z" class="st2"/><path d="m69.48 191.37-10.55 45.68 17.73-10.24c-3.34-16.54-7.19-35.44-7.19-35.44h.01z" class="st0"/><path d="M69.48 191.37v52.79l45.71 26.39v-52.79l-45.71-26.39z" class="st3"/><path d="m115.19 217.76 45.72-26.39v52.79l-45.72 26.39v-52.79z" class="st4"/><path d="m115.19 164.97-45.71 26.4 45.71 26.39 45.72-26.39-45.72-26.4z" class="st2"/><path d="m126.62 224.36-10.54 45.68 17-9.82-6.46-35.86z" class="st0"/><path d="M126.62 224.36v52.79l45.72 26.4v-52.79l-45.72-26.4z" class="st3"/><path d="m172.34 250.76 45.71-26.4v52.79l-45.71 26.4v-52.79z" class="st4"/><path d="m172.34 197.97-45.72 26.39 45.72 26.4 45.71-26.4-45.71-26.39z" class="st2"/><path d="M12.34 92.38v52.79l45.71 26.4v-52.79l-45.71-26.4z" class="st3"/><path d="m58.05 118.78 45.72-26.4v52.79l-45.72 26.4v-52.79z" class="st4"/><path d="M58.05 65.99 12.34 92.38l45.71 26.4 45.72-26.4-45.72-26.39z" class="st2"/><path d="m69.48 125.38-10.55 45.68 20.22-11.67-9.67-34.01z" class="st0"/><path d="M69.48 125.38v52.79l45.71 26.39v-52.79l-45.71-26.39z" class="st3"/><path d="m115.19 151.77 45.72-26.39v52.79l-45.72 26.39v-52.79z" class="st4"/><path d="m115.19 98.98-45.71 26.4 45.71 26.39 45.72-26.39-45.72-26.4z" class="st2"/><path d="m126.62 158.37-10.54 45.69L135.22 193l-8.6-34.63z" class="st0"/><path d="M126.62 158.37v52.79l45.72 26.4v-52.79l-45.72-26.4z" class="st3"/><path d="m172.34 184.77 45.71-26.4v52.79l-45.71 26.4v-52.79z" class="st4"/><path d="m172.34 131.98-45.72 26.39 45.72 26.4 45.71-26.4-45.71-26.39z" class="st2"/><path d="m58.05 171.57-20.95 1.1-24.76-14.3 11.43-6.6 34.28 19.8zM115.19 204.56l-20.95 1.1-24.76-14.29 11.43-6.6 34.28 19.79zM126.62 224.36l11.43-6.6 34.29 19.8-20.96 1.1-24.76-14.3zM126.62 290.35l11.43-6.6 34.29 19.8-20.96 1.1-24.76-14.3zM69.48 257.36l11.43-6.6 34.28 19.79-20.95 1.1-24.76-14.29zM12.34 224.36l11.43-6.6 34.28 19.8-20.95 1.1-24.76-14.3z" class="st0"/></svg>